<svg version="1.1" id="Layer_1" xmlns="http://www.w3.org/2000/svg" xmlns:xlink="http://www.w3.org/1999/xlink" x="0px" y="0px"
	 width="100%" viewBox="0 0 1043 623" enable-background="new 0 0 1043 623" xml:space="preserve">
<path fill="#FEFEFE" opacity="1.000000" stroke="none" 
	d="
M8.000000,624.000000 
	C5.667111,624.000000 3.334222,624.000000 1.001000,624.000000 
	C1.000667,416.373322 1.000667,208.746643 1.000667,1.059988 
	C348.560455,1.059988 696.120911,1.059988 1044.000000,1.059988 
	C1044.000000,171.361237 1044.000000,341.722656 1043.573242,512.582764 
	C1039.719482,512.717285 1036.292847,512.035950 1032.865845,512.034546 
	C870.575134,511.968964 708.284363,511.956726 545.993652,511.950470 
	C368.706848,511.943665 191.420029,511.969604 14.133322,511.839844 
	C9.174787,511.836212 8.085868,513.371826 8.120152,518.047485 
	C8.324181,545.872070 8.235825,573.698792 8.210274,601.524841 
	C8.203395,609.016602 8.073452,616.508301 8.000000,624.000000 
M721.174011,285.005951 
	C720.254822,284.682953 719.292908,284.447632 718.423157,284.023254 
	C710.384216,280.100372 702.428284,275.999084 694.303955,272.263489 
	C690.519409,270.523346 686.548157,269.459015 682.662170,272.742462 
	C673.791260,280.237946 664.748718,287.530029 655.815369,294.952209 
	C647.804077,301.608246 639.845520,308.327789 631.272583,315.179871 
	C630.179382,316.147919 629.086121,317.115936 627.299438,318.111786 
	C626.310913,318.718353 625.318848,319.319244 624.334412,319.932404 
	C612.068909,327.572235 600.246765,336.002167 586.060242,340.050781 
	C572.270325,343.986176 551.174194,333.143005 546.221924,318.410950 
	C551.417542,321.675507 555.964783,324.294373 560.258545,327.277985 
	C570.660461,334.505951 581.344604,335.977997 592.421692,329.074921 
	C606.101562,320.549774 620.039001,312.371185 633.198364,303.096741 
	C645.547363,294.393402 657.051758,284.487579 668.873962,275.043579 
	C672.156738,272.421143 673.105408,269.172394 671.989929,264.854340 
	C667.420776,247.166840 661.191162,230.239975 650.951050,214.947327 
	C638.758850,196.739182 622.186707,188.946686 600.120239,191.578949 
	C585.987183,193.264862 571.842285,193.726898 557.518372,189.868973 
	C548.689270,187.490982 538.669128,187.900146 529.431274,189.048721 
	C514.744629,190.874741 502.567322,199.203217 490.384674,207.116119 
	C480.499207,213.536911 470.694733,220.200470 460.273163,225.643539 
	C450.452759,230.772614 439.389740,226.326096 434.578888,216.400909 
	C429.887299,206.721710 431.089417,197.312988 436.714233,188.375870 
	C442.843933,178.636581 451.909760,172.199615 461.682037,166.628845 
	C472.075287,160.704086 482.777161,155.272141 492.849243,148.848816 
	C500.170563,144.179779 501.393738,137.614090 498.464874,129.596298 
	C497.118103,125.909447 495.544586,125.077713 491.785889,126.857307 
	C489.429016,127.973213 486.303955,127.377251 483.566650,127.817268 
	C482.215881,128.034393 480.139496,128.546143 479.793976,129.456741 
	C476.689667,137.638336 469.897797,141.151016 462.398621,144.009460 
	C446.225250,150.174194 430.266663,156.810486 415.778229,166.475769 
	C395.544098,179.973984 383.294037,198.458878 380.328491,222.863770 
	C378.878326,234.797668 381.397644,246.004425 385.068024,256.872925 
	C383.980560,256.509369 382.835907,256.262817 381.814789,255.763611 
	C374.360657,252.119537 366.932587,248.422241 359.493805,244.746765 
	C354.247498,242.154556 349.635223,242.321136 344.850616,246.452713 
	C332.034698,257.519562 318.870544,268.182434 305.882538,279.050995 
	C299.546722,284.352875 293.295197,289.755524 286.307617,295.190613 
	C277.527649,300.583221 268.854553,306.160645 259.938171,311.317444 
	C250.713593,316.652496 241.361298,321.984436 230.384308,322.736237 
	C211.981171,323.996613 201.619171,311.656342 191.513260,298.922150 
	C196.647888,300.942657 201.617203,303.361786 206.066132,306.515106 
	C218.183685,315.103790 230.770401,317.387512 243.813644,309.263245 
	C262.019836,297.923065 280.307404,286.651001 297.874512,274.369080 
	C309.829254,266.011017 320.760254,256.145782 331.773865,246.525009 
	C333.701202,244.841415 335.062256,240.734787 334.494263,238.247482 
	C329.531616,216.516129 322.165497,195.667755 308.933502,177.415054 
	C300.527466,165.819473 290.204834,155.893173 275.568207,153.816345 
	C264.983124,152.314438 253.977982,153.194092 243.201370,153.775330 
	C231.201645,154.422546 219.424942,155.151855 207.598221,151.521545 
	C192.261307,146.813751 176.845673,147.233490 161.508133,152.634293 
	C147.989029,157.394791 136.329407,165.284180 124.377563,172.842728 
	C113.460281,179.747040 102.573685,186.993744 90.845123,192.236099 
	C79.805237,197.170639 68.400330,190.901627 63.722065,179.640594 
	C58.566887,167.231598 61.547489,156.163620 69.231018,145.901337 
	C78.287071,133.805878 91.123116,126.756081 104.035881,119.704140 
	C113.638435,114.459969 123.352028,109.221977 132.193970,102.841805 
	C139.882004,97.294266 140.550476,89.661888 136.574570,80.978256 
	C134.912186,77.347496 133.256012,76.381165 129.944901,79.043137 
	C126.434090,81.865662 122.697990,83.053833 118.775772,79.565323 
	C118.368805,79.203354 117.556137,79.297523 116.591255,79.115997 
	C114.072739,89.820244 106.247368,94.872223 96.853081,98.556763 
	C86.026352,102.803146 75.161552,107.044403 64.675743,112.047539 
	C46.962883,120.498947 30.345442,130.744827 18.687963,147.093277 
	C2.212911,170.197906 -2.132343,195.642166 7.426491,222.408554 
	C14.872969,243.259933 31.276731,256.461060 50.272881,266.579163 
	C65.586533,274.735840 82.548012,277.788788 99.137299,281.991577 
	C102.712631,282.897369 106.119553,284.467896 109.604057,285.732208 
	C109.450943,286.323639 109.297829,286.915070 109.144714,287.506500 
	C92.620049,290.479034 76.095375,293.451569 59.570709,296.424103 
	C59.536926,296.894073 59.503143,297.364044 59.469360,297.834015 
	C60.479538,298.556793 61.394878,299.661804 62.515408,299.939850 
	C69.419083,301.652771 76.370735,304.512939 83.303268,304.504089 
	C100.411446,304.482239 117.526474,303.258209 134.621368,302.228699 
	C142.867661,301.732056 142.974045,301.535645 143.289429,309.759094 
	C144.552780,342.698303 151.815750,374.382202 164.195190,404.811493 
	C172.782745,425.920105 182.495041,446.568939 191.391083,467.556183 
	C193.087921,471.559357 195.049240,473.087646 199.424652,473.025970 
	C218.918945,472.751129 238.418152,472.831177 257.915466,472.751190 
	C259.494202,472.744720 261.071991,472.497925 262.866821,472.344238 
	C261.257416,465.677429 259.377563,459.663055 258.405640,453.505341 
	C256.196716,439.510345 256.151672,425.578094 262.219299,412.332092 
	C265.927460,404.236816 271.903809,399.377625 281.336914,399.816833 
	C290.491272,400.243042 295.964569,405.471619 299.259674,413.456848 
	C304.159729,425.331451 303.327179,437.675079 301.283722,449.868011 
	C300.035522,457.315674 297.415100,464.533356 295.328644,472.155212 
	C296.288239,472.392334 297.205841,472.813751 298.125305,472.817719 
	C319.622192,472.911041 341.120026,473.044617 362.614807,472.852753 
	C364.325836,472.837524 366.679077,470.875244 367.596100,469.196411 
	C370.784485,463.359192 373.131104,457.055359 376.405914,451.273376 
	C394.244385,419.778412 408.093109,386.746002 415.718475,351.248077 
	C416.179016,349.104187 416.890228,347.014160 417.725555,344.042603 
	C432.922821,360.192139 441.721039,377.502167 439.535919,399.285980 
	C438.657379,408.044342 438.099152,416.878998 438.191315,425.670593 
	C438.233307,429.674835 440.207794,433.658813 441.305756,437.651947 
	C441.905334,437.633575 442.504883,437.615204 443.104431,437.596832 
	C443.994934,436.304749 445.300842,435.130066 445.704712,433.700500 
	C447.550201,427.167725 449.972534,420.649506 450.664825,413.968262 
	C452.481934,396.432098 447.490387,379.952759 441.049469,363.918396 
	C434.227356,346.935120 426.705566,330.223267 420.259430,313.102936 
	C417.282593,305.196747 416.136932,296.601105 414.161011,288.318024 
	C429.561340,296.731995 445.746796,300.410522 461.901428,304.235565 
	C466.078857,305.224670 470.119873,306.789856 474.223511,308.090424 
	C474.143341,308.641724 474.063141,309.193024 473.982941,309.744354 
	C459.422302,312.491821 444.861694,315.239319 430.301056,317.986786 
	C430.328735,318.596436 430.356415,319.206116 430.384094,319.815765 
	C433.150635,320.856049 435.851440,322.526947 438.695465,322.823334 
	C448.915558,323.888397 459.182312,325.064728 469.434692,325.094910 
	C478.720520,325.122253 488.023560,323.833710 497.293396,322.877533 
	C502.067963,322.385101 503.913910,323.598175 504.054230,328.938873 
	C504.643188,351.360321 508.065491,373.516052 515.930542,394.481018 
	C525.448608,419.852081 536.453003,444.669342 547.097290,469.605469 
	C547.797852,471.246643 550.891724,472.782562 552.892639,472.808563 
	C570.220642,473.033752 587.553345,472.914398 604.884521,472.851227 
	C606.259705,472.846191 607.633667,472.493011 609.483154,472.235474 
	C608.683167,469.846222 608.045837,468.153687 607.547424,466.421204 
	C603.118103,451.023499 601.786316,435.599731 608.261475,420.442017 
	C612.262268,411.076447 617.593567,408.038757 626.943298,408.823975 
	C634.066895,409.422241 639.959778,414.995636 642.249939,423.331146 
	C644.906250,432.999420 644.892334,442.798248 643.004272,452.530182 
	C641.725525,459.121460 639.698364,465.567535 637.963013,472.243713 
	C638.879395,472.492493 639.495483,472.803711 640.112915,472.806458 
	C658.943481,472.889435 677.775269,473.039551 696.603027,472.831909 
	C698.282288,472.813446 700.574707,470.787354 701.488525,469.100983 
	C705.134338,462.373260 708.063782,455.253723 711.773010,448.564575 
	C723.532593,427.357727 733.362305,405.376587 739.520447,381.855560 
	C741.363037,374.817383 743.141052,367.762268 745.016968,360.448334 
	C746.047241,360.915527 746.791504,361.028931 747.180176,361.461761 
	C759.620300,375.313110 766.901550,390.910370 764.355286,410.151520 
	C763.420166,417.217834 763.081604,424.426117 763.262024,431.549622 
	C763.348206,434.953430 765.281738,438.310455 766.633423,442.473663 
	C771.789062,436.462738 774.440491,427.505707 774.636597,417.793518 
	C774.970947,401.227875 769.587524,386.046448 763.377441,371.048065 
	C757.841003,357.676697 752.393066,344.268433 746.976196,330.848145 
	C746.432556,329.501434 746.374512,327.958710 745.794128,324.985352 
	C761.205994,336.728821 778.928955,338.075500 795.129822,343.475677 
	C795.077026,344.042450 795.024170,344.609222 794.971375,345.175964 
	C783.938171,347.261536 772.904968,349.347076 761.871704,351.432648 
	C761.839355,352.220093 761.806946,353.007538 761.774536,353.795013 
	C767.171875,354.888733 772.565002,356.868927 777.967346,356.894409 
	C789.753601,356.950043 801.552185,356.135071 813.329285,355.409027 
	C817.251831,355.167236 818.808594,355.974365 819.205872,360.370972 
	C820.221985,371.618378 821.344177,382.930969 823.602173,393.976624 
	C829.083923,420.792633 841.293030,445.161835 852.608093,469.803955 
	C853.313049,471.339264 856.120667,472.749390 857.975037,472.781708 
	C870.968994,473.008087 883.969604,472.872589 896.967896,472.800415 
	C898.210815,472.793518 899.451782,472.427704 901.257080,472.138153 
	C900.575012,469.793762 899.989014,467.943451 899.498779,466.068085 
	C896.302185,453.838348 895.615479,441.690948 901.435486,429.994568 
	C903.824707,425.193024 907.748596,422.518494 913.446350,422.548828 
	C919.012634,422.578491 922.948853,424.813293 925.613220,429.689484 
	C930.015991,437.747284 930.004944,446.360443 928.601440,454.993866 
	C927.655457,460.812927 925.838318,466.490417 924.319092,472.600586 
	C926.015381,472.718628 927.473877,472.900269 928.933411,472.908783 
	C938.931946,472.967133 948.999634,472.271057 958.909912,473.223999 
	C968.913452,474.185883 974.058228,470.977753 978.386047,461.459106 
	C986.707886,443.155914 997.170715,425.823395 1002.457214,406.190765 
	C1004.348145,399.168396 1006.200562,392.135681 1008.107666,384.968170 
	C1008.939514,385.306183 1009.517761,385.363892 1009.804688,385.683319 
	C1020.265137,397.327118 1025.395874,410.636139 1022.882080,426.500427 
	C1022.183838,430.907410 1021.883057,435.456696 1022.116028,439.903198 
	C1022.264832,442.743347 1023.728088,445.514587 1024.602051,448.316742 
	C1025.156616,448.276855 1025.711182,448.236938 1026.265747,448.197021 
	C1027.057861,446.826721 1028.107910,445.542480 1028.598633,444.071594 
	C1031.110107,436.542145 1032.801636,428.656189 1030.651123,420.971008 
	C1027.256592,408.839294 1022.933655,396.964081 1018.899414,385.015503 
	C1014.972290,373.384338 1011.115417,361.722412 1006.826172,350.223755 
	C1004.776733,344.729279 1001.797852,339.581512 999.007019,333.711029 
	C988.820496,327.869873 978.674194,321.956696 968.425659,316.226471 
	C964.816406,314.208496 961.360901,314.327332 957.890015,317.306366 
	C944.688782,328.636566 931.312805,339.763092 917.280640,351.027313 
	C914.723450,352.508545 912.183594,354.020752 909.605774,355.465027 
	C902.508362,359.441498 895.580200,363.778595 888.248535,367.265442 
	C874.221130,373.936707 859.576050,365.532257 854.246277,354.341309 
	C854.548889,354.253845 854.935242,354.002960 855.133545,354.107788 
	C856.289429,354.718964 857.498840,355.291046 858.512939,356.098755 
	C870.326721,365.508850 882.203308,365.685150 894.585449,356.984070 
	C904.923279,349.719574 915.768799,343.173340 926.046204,335.828644 
	C933.608154,330.424561 940.816162,324.468292 947.736145,318.261169 
	C949.578247,316.608917 951.192749,312.661407 950.500366,310.563507 
	C946.606201,298.764160 943.086487,286.622833 937.336975,275.705139 
	C928.614319,259.141510 914.988342,250.011780 894.898071,252.536041 
	C883.105408,254.017761 871.287903,254.092072 859.332886,250.652679 
	C850.357239,248.070419 840.279785,248.233734 831.415344,252.511978 
	C822.173706,256.972260 813.341370,262.298553 804.432190,267.423676 
	C797.820435,271.227203 791.644165,275.893768 784.778137,279.120880 
	C777.088074,282.735199 769.747070,280.152527 765.613525,273.425873 
	C762.114319,267.731506 761.326355,261.678284 763.688049,255.254593 
	C767.309631,245.403748 774.988831,239.358490 783.514038,234.278107 
	C790.792786,229.940536 798.581665,226.445282 805.767944,221.971939 
	C809.298401,219.774292 812.440369,216.542084 814.897644,213.153992 
	C817.063660,210.167511 815.696594,201.858093 813.409058,201.699234 
	C809.147400,201.403305 804.776794,202.602493 800.465210,203.268127 
	C800.176208,203.312744 799.988708,204.095490 799.776672,204.545578 
	C797.096802,210.234802 792.206238,213.059326 786.571594,215.191986 
	C772.875549,220.375839 759.244629,225.802628 747.343567,234.569824 
	C730.753418,246.791367 721.530884,262.877930 721.949463,284.463715 
	C721.936340,284.665619 721.923157,284.867554 721.174011,285.005951 
M396.326202,65.895615 
	C398.392273,60.739567 400.458344,55.583519 402.524445,50.427475 
	C402.861450,50.462578 403.198456,50.497681 403.535461,50.532787 
	C404.547363,59.316925 405.559235,68.101067 406.569946,76.874962 
	C410.588409,76.874962 414.194244,76.874962 417.825134,76.874962 
	C422.691162,52.221943 427.506287,27.826880 432.360016,3.236147 
	C429.094116,3.236147 426.337921,3.236147 423.442139,3.236147 
	C420.160095,20.770342 416.921173,38.074024 413.682281,55.377705 
	C413.441956,55.372528 413.201660,55.367352 412.961365,55.362175 
	C411.873047,46.016232 410.784760,36.670284 409.722534,27.548326 
	C404.810425,26.087694 402.391205,27.591509 400.892761,32.179108 
	C398.517548,39.450993 395.411682,46.484219 392.614929,53.618423 
	C392.298187,53.526806 391.981415,53.435188 391.664642,53.343571 
	C393.401062,36.703537 395.137451,20.063501 396.899170,3.181033 
	C393.787140,3.181033 391.018280,3.181033 387.855774,3.181033 
	C385.473694,27.819052 383.101471,52.355247 380.726379,76.921211 
	C391.785248,77.525124 391.785828,77.525352 395.556122,68.033623 
	C395.739899,67.570961 395.897308,67.097824 396.326202,65.895615 
M663.038147,29.506054 
	C660.733398,45.225529 658.428589,60.945007 656.055420,77.130791 
	C669.844849,76.556900 684.901611,80.871353 693.107483,65.230415 
	C695.528870,60.615028 696.566223,54.749542 696.448547,49.497017 
	C696.359375,45.516598 693.429565,41.599815 691.587891,37.237915 
	C698.239502,31.860451 700.549561,23.898655 699.328003,14.745536 
	C698.539124,8.834317 695.110962,4.669307 689.242126,3.913060 
	C681.934753,2.971453 674.498535,3.029252 667.106873,2.654917 
	C665.693420,11.884822 664.411438,20.256359 663.038147,29.506054 
M572.276367,10.773969 
	C569.070679,32.736828 565.864929,54.699688 562.588867,77.144264 
	C567.108582,77.144264 571.073364,77.036720 575.030579,77.163948 
	C588.173096,77.586487 597.299072,71.349220 602.875610,59.885113 
	C608.995728,47.303337 610.768860,33.868656 608.875183,20.058798 
	C607.619263,10.899792 602.170227,4.803956 593.319031,3.608874 
	C586.857666,2.736465 580.183777,3.438168 573.456726,3.438168 
	C573.111572,5.684896 572.786621,7.800388 572.276367,10.773969 
M372.323151,3.912413 
	C362.877136,-0.118387 354.478210,2.249795 347.804077,11.074567 
	C341.184326,19.827503 337.967407,30.063473 337.204285,40.743397 
	C336.596283,49.252544 336.510986,58.167141 338.396637,66.397011 
	C340.993256,77.729866 353.300476,82.012817 362.963104,75.417969 
	C367.307251,72.453041 371.270660,67.971947 373.665222,63.288376 
	C380.883759,49.169746 383.111084,33.930946 380.880920,18.198168 
	C380.095917,12.660304 377.893829,7.624323 372.323151,3.912413 
M480.720673,29.036036 
	C478.345245,44.918308 475.969849,60.800583 473.567474,76.862946 
	C477.124573,76.862946 480.028320,76.862946 483.081421,76.862946 
	C484.705139,66.145050 486.290955,55.677383 487.862000,45.307076 
	C494.085358,45.340164 495.564209,46.560165 496.886658,52.827026 
	C498.587952,60.889187 500.132202,68.984482 501.697723,76.833130 
	C505.447693,76.833130 508.529877,76.833130 511.991913,76.833130 
	C509.275970,65.020195 506.648712,53.592972 503.920807,41.728046 
	C513.539612,35.994526 517.035706,26.538803 515.262878,14.992523 
	C514.211548,8.145148 510.279633,4.082801 503.419373,3.376511 
	C497.215546,2.737801 490.894043,3.241596 484.431305,3.241596 
	C483.210754,11.739244 482.031342,19.950489 480.720673,29.036036 
M437.693420,19.058035 
	C434.822418,38.255329 431.951416,57.452625 429.061310,76.777618 
	C440.155823,76.777618 450.878601,76.777618 461.654907,76.777618 
	C462.125702,73.350883 462.547974,70.277367 463.064575,66.517410 
	C455.304657,66.517410 447.940918,66.517410 440.198395,66.517410 
	C441.357147,58.662540 442.413483,51.501976 443.540985,43.858776 
	C451.093994,43.858776 458.335602,43.858776 465.582458,43.858776 
	C466.068542,40.231525 466.483490,37.135315 466.975861,33.461052 
	C459.578125,33.461052 452.515533,33.461052 445.019592,33.461052 
	C446.124969,26.391382 447.135345,19.929249 448.171478,13.302397 
	C456.097748,13.302397 463.390411,13.302397 470.897125,13.302397 
	C471.410583,9.838998 471.888336,6.616409 472.396790,3.186688 
	C461.345612,3.186688 450.737762,3.186688 440.079224,3.186688 
	C439.425995,7.160186 438.789062,10.932444 438.194824,14.711419 
	C438.013947,15.861566 437.950897,17.030239 437.693420,19.058035 
M556.244629,13.460973 
	C563.791382,13.231936 562.174622,15.405520 563.673523,3.325776 
	C552.949341,3.325776 542.232056,3.325776 531.437134,3.325776 
	C527.800293,28.026869 524.212341,52.395859 520.595215,76.962593 
	C531.808044,76.962593 542.245178,76.962593 553.059204,76.962593 
	C553.524109,73.639282 553.971741,70.439163 554.495483,66.695290 
	C546.742676,66.695290 539.494080,66.695290 531.684021,66.695290 
	C532.843567,58.834816 533.921326,51.529045 535.036072,43.972164 
	C542.565002,43.972164 549.682800,43.972164 557.033691,43.972164 
	C557.484131,40.456898 557.898254,37.225506 558.386292,33.416851 
	C550.929443,33.416851 544.028320,33.416851 536.665833,33.416851 
	C537.537048,27.124987 538.206238,21.378534 539.248779,15.700630 
	C539.414612,14.797611 541.225342,13.630500 542.332397,13.566438 
	C546.644104,13.316916 550.978638,13.462334 556.244629,13.460973 
M293.813477,52.151711 
	C292.569885,60.312901 291.326294,68.474091 290.057373,76.801537 
	C293.465698,76.801537 296.520355,76.801537 299.594086,76.801537 
	C300.911346,68.172478 302.178192,59.873772 303.376251,52.025520 
	C308.708099,51.235813 313.677094,51.239361 318.110687,49.700455 
	C330.010681,45.569942 337.635620,29.338917 334.403809,16.213177 
	C332.535278,8.624302 327.630920,3.839792 319.908356,3.213225 
	C313.678894,2.707804 307.375793,3.110834 300.972717,3.110834 
	C298.588135,19.390070 296.252960,35.331970 293.813477,52.151711 
M741.976440,6.260104 
	C736.521423,16.404129 731.066345,26.548153 725.296448,37.277729 
	C722.311707,25.440979 719.519470,14.367710 716.696899,3.173958 
	C713.077393,3.173958 709.641663,3.173958 705.886353,3.173958 
	C709.522156,16.561691 712.958130,29.714733 716.708618,42.777451 
	C718.215515,48.025860 718.462219,53.089890 717.414124,58.450130 
	C716.226013,64.526611 715.646973,70.722183 714.787781,76.977539 
	C718.308167,76.977539 721.103760,76.977539 724.203918,76.977539 
	C724.489563,75.241203 724.877380,73.630585 725.003418,71.999718 
	C726.068054,58.226402 729.837280,45.509773 737.561035,33.767509 
	C743.905212,24.122545 749.020935,13.669521 755.333862,2.410592 
	C750.317261,4.155655 745.512390,0.447268 741.976440,6.260104 
z"/>
<path fill="#070A0B" opacity="1.000000" stroke="none" 
	d="
M8.468657,624.000000 
	C8.073452,616.508301 8.203395,609.016602 8.210274,601.524841 
	C8.235825,573.698792 8.324181,545.872070 8.120152,518.047485 
	C8.085868,513.371826 9.174787,511.836212 14.133322,511.839844 
	C191.420029,511.969604 368.706848,511.943665 545.993652,511.950470 
	C708.284363,511.956726 870.575134,511.968964 1032.865845,512.034546 
	C1036.292847,512.035950 1039.719482,512.717285 1043.573242,513.040649 
	C1044.000000,514.388916 1044.000000,515.777771 1043.670654,517.853149 
	C1043.149048,520.508728 1042.794312,522.477600 1042.789917,524.447205 
	C1042.742920,545.192261 1042.721069,565.937500 1042.757080,586.682617 
	C1042.778809,599.121826 1042.915161,611.560852 1043.000000,624.000000 
	C698.312439,624.000000 353.624878,624.000000 8.468657,624.000000 
M223.619263,598.296936 
	C229.954315,597.460144 234.682632,594.019348 236.623566,588.128235 
	C239.522507,579.329285 237.403442,571.710571 228.602554,566.819153 
	C229.324890,565.834045 229.600418,565.220642 230.069244,564.855164 
	C235.619965,560.528076 237.214600,554.780212 234.999298,548.399231 
	C232.765823,541.965881 228.086807,537.789551 220.907455,537.623413 
	C206.784180,537.296631 192.656204,537.166382 178.529480,537.021179 
	C177.849838,537.014160 177.163635,537.643494 177.489059,537.484924 
	C178.329788,540.723083 179.589951,543.401611 179.630402,546.098328 
	C179.837448,559.900757 179.848511,573.709534 179.653351,587.512268 
	C179.601532,591.177490 178.578659,594.828979 178.012192,598.420044 
	C192.294342,598.420044 207.525711,598.420044 223.619263,598.296936 
M670.743042,576.059143 
	C673.350525,557.901001 667.453735,545.517761 652.046692,538.902832 
	C641.633362,534.431946 630.599060,534.622620 619.771912,537.806641 
	C608.571655,541.100403 600.820007,548.409119 598.079407,559.777405 
	C595.059265,572.305237 597.662659,583.729431 608.222839,592.125122 
	C618.829773,600.558105 631.057983,602.002930 644.073853,599.612976 
	C657.391113,597.167786 666.245972,589.724854 670.743042,576.059143 
M814.340393,572.896240 
	C814.340393,569.010803 814.340393,565.125366 814.340393,561.159302 
	C812.266235,562.099792 810.443176,563.583923 808.561462,563.662415 
	C801.576294,563.953674 794.567688,563.900635 787.578857,563.658875 
	C786.507019,563.621826 784.643860,561.956970 784.592773,560.970093 
	C784.302795,555.366333 784.452271,549.739868 784.452271,543.677185 
	C786.722656,543.563965 788.498779,543.402405 790.275085,543.399048 
	C799.771423,543.381287 809.270996,543.266357 818.762207,543.490051 
	C821.802856,543.561707 824.821533,544.565002 828.123779,545.194092 
	C828.123779,542.050476 828.123779,538.069214 828.123779,535.049927 
	C825.013489,535.692566 822.156433,536.754089 819.284424,536.796143 
	C805.625671,536.995911 791.962769,536.901062 778.301575,536.961853 
	C776.667114,536.969177 775.033936,537.286743 774.208496,537.374512 
	C775.058838,540.465576 776.248718,542.840088 776.280701,545.230042 
	C776.461243,558.722412 776.484375,572.220154 776.291260,585.712280 
	C776.229492,590.025940 775.343750,594.327881 774.781372,599.090088 
	C775.470215,599.090088 777.092102,599.088928 778.714050,599.090210 
	C791.875610,599.100708 805.039124,598.993103 818.197510,599.204102 
	C821.567078,599.258179 824.920532,600.319092 828.346191,600.928894 
	C828.346191,597.828552 828.346191,593.991455 828.346191,590.216919 
	C825.997192,591.140259 823.996704,592.576172 821.968933,592.615784 
	C810.644287,592.837524 799.312927,592.684875 787.984314,592.749451 
	C785.492981,592.763611 784.352295,591.950256 784.423706,589.291321 
	C784.557922,584.297058 784.598877,579.290527 784.398071,574.300354 
	C784.269531,571.107666 785.680847,570.317383 788.568176,570.383850 
	C794.895874,570.529602 801.240540,570.232361 807.553040,570.577393 
	C809.622864,570.690552 811.614868,572.227478 814.340393,572.896240 
M701.295288,553.498474 
	C702.109436,548.224121 698.986389,542.236511 705.046082,537.493042 
	C699.551514,537.493042 694.968811,537.493042 691.309265,537.493042 
	C691.959290,540.756042 692.985657,543.607056 693.019836,546.469971 
	C693.187317,560.467651 693.198914,574.469849 693.007385,588.466980 
	C692.961731,591.800110 691.924500,595.119690 691.322449,598.565430 
	C695.080200,598.565430 699.651733,598.565430 704.029663,598.565430 
	C703.002991,596.347778 701.532898,594.568542 701.441589,592.721130 
	C701.129456,586.402832 701.143738,580.053345 701.433655,573.734131 
	C701.486328,572.586060 703.403564,570.588684 704.491333,570.567139 
	C715.819641,570.342896 727.154480,570.475769 738.487183,570.428406 
	C741.231323,570.416931 741.806335,571.859741 741.761597,574.225098 
	C741.666992,579.223328 741.929016,584.236389 741.638367,589.219666 
	C741.462219,592.240051 740.525574,595.216125 739.852234,598.606689 
	C743.580322,598.606689 748.128723,598.606689 751.801697,598.606689 
	C751.053284,595.252319 749.859497,592.264954 749.807556,589.257751 
	C749.588684,576.595093 749.663818,563.926392 749.732239,551.260376 
	C749.757812,546.512939 748.415161,541.439941 753.344116,537.472534 
	C747.961121,537.472534 743.484497,537.472534 739.885803,537.472534 
	C740.563782,540.741394 741.473572,543.552979 741.663635,546.412354 
	C741.950256,550.726379 741.537842,555.085449 741.794067,559.403381 
	C742.000427,562.880737 740.845947,564.114990 737.291748,564.033508 
	C728.463318,563.830933 719.627014,563.974243 710.793884,563.973145 
	C701.304138,563.971924 701.304138,563.969116 701.295288,553.498474 
M105.042976,593.123047 
	C106.062775,590.854858 107.340393,588.663757 108.046822,586.301880 
	C109.372513,581.869263 112.119926,580.612244 116.617157,580.848145 
	C123.917488,581.231201 131.258774,580.777527 138.570297,581.033447 
	C141.150604,581.123840 145.324829,581.564270 145.955368,583.044434 
	C148.016907,587.883667 153.575546,592.178040 149.695663,598.518799 
	C154.619003,598.518799 159.394836,598.518799 163.805450,598.518799 
	C161.882401,595.772583 159.765717,593.495972 158.498199,590.817505 
	C150.909302,574.780823 143.442307,558.684875 136.138550,542.516602 
	C135.076965,540.166626 135.109863,537.322205 134.541809,534.184570 
	C130.709793,534.184570 125.807480,534.184570 122.039856,534.184570 
	C121.649361,537.121643 121.843941,539.504700 120.992668,541.423706 
	C116.211899,552.201111 111.253471,562.901978 106.208664,573.559265 
	C102.227631,581.969360 98.034508,590.279053 93.939415,598.625488 
	C97.407036,598.625488 101.949066,598.625488 106.514076,598.625488 
	C105.770195,596.769836 105.177803,595.292114 105.042976,593.123047 
M919.760681,590.061340 
	C919.003967,592.756958 918.247314,595.452576 917.411316,598.430786 
	C921.524170,598.430786 926.152100,598.430786 930.050598,598.430786 
	C929.201843,595.385315 928.073242,592.873108 927.876770,590.289917 
	C927.537048,585.821472 928.011841,581.292725 927.703186,576.819763 
	C927.408386,572.548584 928.707947,570.934204 933.254822,571.082397 
	C941.895508,571.364136 950.572266,571.301697 959.205505,570.844482 
	C968.297119,570.362915 974.106812,563.857117 974.294067,554.785828 
	C974.494080,545.090576 969.290894,538.221802 960.032532,537.730957 
	C946.257812,537.000732 932.436340,537.139893 918.633972,536.977356 
	C917.994324,536.969788 917.346741,537.628784 917.737549,537.417236 
	C918.518921,541.135071 919.664795,544.160156 919.706421,547.200378 
	C919.897644,561.178955 919.780579,575.161743 919.760681,590.061340 
M584.215271,534.992493 
	C581.630371,535.824585 579.057861,537.327698 576.458435,537.375916 
	C563.132141,537.623047 549.797180,537.612915 536.469238,537.420288 
	C532.905273,537.368774 529.355225,536.359802 525.739014,535.780823 
	C525.739014,538.766174 525.739014,542.527893 525.739014,545.617920 
	C528.671143,544.842285 531.181458,543.779236 533.756897,543.586609 
	C538.065308,543.264465 542.426392,543.688904 546.744446,543.438721 
	C550.329834,543.231018 551.749756,544.253418 551.679688,548.135437 
	C551.430054,561.961975 551.619873,575.796265 551.395630,589.623596 
	C551.349121,592.493042 550.240845,595.345337 549.542603,598.572021 
	C553.217102,598.572021 557.616760,598.572021 561.933228,598.572021 
	C560.991028,596.080139 559.567810,594.030701 559.537109,591.960571 
	C559.314148,576.966614 559.327026,561.968140 559.433105,546.972290 
	C559.441101,545.849487 560.800598,543.737793 561.448669,543.769775 
	C569.515503,544.168274 577.946716,541.283386 586.708740,546.904663 
	C586.030945,542.262939 585.474304,538.450928 584.215271,534.992493 
M479.789276,553.657959 
	C478.263092,551.682495 476.656250,549.763245 475.229523,547.718323 
	C473.083893,544.643188 469.624329,541.862488 472.999054,537.487854 
	C467.120789,537.487854 461.781281,537.487854 457.895050,537.487854 
	C459.284149,539.407837 460.974182,541.858154 462.780243,544.219727 
	C469.255432,552.686768 475.784637,561.112549 482.248077,569.588501 
	C482.937103,570.492065 483.834167,571.650330 483.779297,572.643066 
	C483.300415,581.309692 486.212616,590.304810 481.246674,598.685303 
	C485.935913,598.685303 490.453217,598.685303 494.138611,598.685303 
	C493.338226,595.213379 492.260681,592.103638 491.977814,588.923218 
	C491.610138,584.789124 491.539368,580.562866 491.981842,576.445190 
	C492.284882,573.624939 493.092407,570.508301 494.689148,568.237732 
	C502.051605,557.767822 509.770020,547.548340 517.203735,537.452454 
	C513.119446,537.452454 508.182526,537.452454 503.530762,537.452454 
	C503.967987,539.452881 505.131226,541.549866 504.519165,542.485107 
	C499.651459,549.923523 494.446655,557.141357 488.785309,565.226685 
	C485.473480,560.972046 482.847595,557.598511 479.789276,553.657959 
M880.499512,592.749695 
	C874.666565,592.744812 868.826172,592.560425 863.003296,592.799805 
	C859.284729,592.952698 858.107117,591.647217 858.160217,587.931213 
	C858.350708,574.601501 858.120239,561.265564 858.324463,547.936218 
	C858.377869,544.450012 859.428955,540.979065 860.020874,537.506714 
	C856.368835,537.506714 851.781006,537.506714 848.097351,537.506714 
	C848.843994,540.863708 850.005310,543.755371 850.045532,546.662537 
	C850.236877,560.492188 850.248657,574.328064 850.028320,588.157043 
	C849.974304,591.546997 848.806213,594.919250 848.040955,598.863281 
	C848.833557,598.915649 850.388672,599.104919 851.944153,599.107788 
	C864.943298,599.131958 877.944214,599.001587 890.940308,599.200317 
	C894.531311,599.255249 898.107849,600.259155 901.955200,600.869568 
	C901.955200,597.882935 901.955200,594.044617 901.955200,591.062683 
	C898.118103,591.649963 894.573853,592.378784 890.993469,592.684326 
	C887.849609,592.952698 884.665222,592.746521 880.499512,592.749695 
M401.549133,543.502075 
	C404.380066,543.506042 407.236725,543.752625 410.035858,543.456238 
	C414.083160,543.027649 415.098480,544.668640 415.033295,548.543762 
	C414.811951,561.695496 415.058472,574.854797 414.865967,588.007446 
	C414.814758,591.506226 413.831787,594.991272 413.251007,598.643921 
	C416.837952,598.643921 421.307037,598.643921 425.876831,598.643921 
	C424.794617,596.449768 423.161530,594.660645 423.136963,592.849670 
	C422.929230,577.532654 422.959991,562.210999 423.125458,546.893005 
	C423.137665,545.763550 424.812225,543.643066 425.619019,543.687988 
	C433.337921,544.118042 441.337646,541.596863 448.672668,545.721558 
	C448.672668,542.105408 448.672668,538.588135 448.672668,535.866333 
	C445.239807,536.454468 442.127869,537.408447 439.003906,537.449463 
	C426.017303,537.619873 413.025543,537.624329 400.039246,537.440369 
	C396.435883,537.389343 392.844666,536.479431 389.290924,535.969727 
	C389.290924,538.717163 389.290924,542.306213 389.290924,544.868164 
	C393.343811,544.376160 396.959045,543.937256 401.549133,543.502075 
M342.275208,599.847656 
	C343.189148,600.603577 344.103088,601.359558 345.455048,602.477783 
	C345.455048,597.910278 345.455048,594.070923 345.455048,590.499451 
	C342.777008,591.323547 340.413147,592.636597 338.023560,592.685303 
	C327.381042,592.902039 316.730011,592.665466 306.084595,592.797729 
	C302.817322,592.838257 301.795837,591.717896 301.831970,588.454407 
	C301.986725,574.481567 301.788788,560.504517 301.990936,546.532837 
	C302.034119,543.551514 303.211365,540.586548 303.900024,537.460266 
	C299.971008,537.460266 295.394287,537.460266 291.740875,537.460266 
	C292.507050,540.861694 293.709503,543.820557 293.752319,546.796204 
	C293.953491,560.767700 293.954010,574.745667 293.742706,588.717041 
	C293.694519,591.902588 292.521332,595.071228 291.748138,598.818542 
	C292.671936,598.873230 294.388153,599.046875 296.105988,599.065308 
	C311.233093,599.227417 326.360535,599.361755 342.275208,599.847656 
M371.395599,552.516235 
	C372.100128,547.554138 369.220520,541.890015 375.470795,537.406006 
	C369.706848,537.406006 365.141113,537.406006 361.346985,537.406006 
	C362.015778,540.676086 363.073334,543.533081 363.106873,546.401978 
	C363.274109,560.706360 363.278107,575.015381 363.079773,589.319153 
	C363.037872,592.341736 361.908722,595.349243 361.262573,598.449951 
	C365.195435,598.449951 369.730255,598.449951 373.455811,598.449951 
	C372.684998,595.471313 371.511688,592.965332 371.472321,590.441528 
	C371.280457,578.134399 371.391571,565.822510 371.395599,552.516235 
M267.203522,584.357300 
	C267.208435,572.056763 267.081665,559.753906 267.305450,547.457336 
	C267.365906,544.134460 268.488403,540.830811 269.134949,537.458252 
	C265.395142,537.458252 260.809174,537.458252 257.141937,537.458252 
	C257.857605,540.889343 258.977142,543.864868 259.016968,546.854797 
	C259.205200,560.981384 259.200623,575.113159 259.014069,589.239807 
	C258.974396,592.245605 257.888489,595.237610 257.209991,598.606445 
	C260.922241,598.606445 265.479736,598.606445 271.286652,598.606445 
	C265.463257,594.655579 267.733368,589.672852 267.203522,584.357300 
z"/>
<path fill="#B5B7B7" opacity="1.000000" stroke="none" 
	d="
M1043.500000,624.000000 
	C1042.915161,611.560852 1042.778809,599.121826 1042.757080,586.682617 
	C1042.721069,565.937500 1042.742920,545.192261 1042.789917,524.447205 
	C1042.794312,522.477600 1043.149048,520.508728 1043.670654,518.269775 
	C1044.000000,553.333313 1044.000000,588.666687 1043.500000,624.000000 
z"/>
<path fill="#636771" opacity="1.000000" stroke="none" 
	d="
M999.239868,334.276703 
	C1001.797852,339.581512 1004.776733,344.729279 1006.826172,350.223755 
	C1011.115417,361.722412 1014.972290,373.384338 1018.899414,385.015503 
	C1022.933655,396.964081 1027.256592,408.839294 1030.651123,420.971008 
	C1032.801636,428.656189 1031.110107,436.542145 1028.598633,444.071594 
	C1028.107910,445.542480 1027.057861,446.826721 1026.265747,448.197021 
	C1025.711182,448.236938 1025.156616,448.276855 1024.602051,448.316742 
	C1023.728088,445.514587 1022.264832,442.743347 1022.116028,439.903198 
	C1021.883057,435.456696 1022.183838,430.907410 1022.882080,426.500427 
	C1025.395874,410.636139 1020.265137,397.327118 1009.804688,385.683319 
	C1009.517761,385.363892 1008.939514,385.306183 1008.107666,384.968170 
	C1006.200562,392.135681 1004.348145,399.168396 1002.457214,406.190765 
	C997.170715,425.823395 986.707886,443.155914 978.386047,461.459106 
	C974.058228,470.977753 968.913452,474.185883 958.909912,473.223999 
	C948.999634,472.271057 938.931946,472.967133 928.933411,472.908783 
	C927.473877,472.900269 926.015381,472.718628 924.319092,472.600586 
	C925.838318,466.490417 927.655457,460.812927 928.601440,454.993866 
	C930.004944,446.360443 930.015991,437.747284 925.613220,429.689484 
	C922.948853,424.813293 919.012634,422.578491 913.446350,422.548828 
	C907.748596,422.518494 903.824707,425.193024 901.435486,429.994568 
	C895.615479,441.690948 896.302185,453.838348 899.498779,466.068085 
	C899.989014,467.943451 900.575012,469.793762 901.257080,472.138153 
	C899.451782,472.427704 898.210815,472.793518 896.967896,472.800415 
	C883.969604,472.872589 870.968994,473.008087 857.975037,472.781708 
	C856.120667,472.749390 853.313049,471.339264 852.608093,469.803955 
	C841.293030,445.161835 829.083923,420.792633 823.602173,393.976624 
	C821.344177,382.930969 820.221985,371.618378 819.205872,360.370972 
	C818.808594,355.974365 817.251831,355.167236 813.329285,355.409027 
	C801.552185,356.135071 789.753601,356.950043 777.967346,356.894409 
	C772.565002,356.868927 767.171875,354.888733 761.774536,353.795013 
	C761.806946,353.007538 761.839355,352.220093 761.871704,351.432648 
	C772.904968,349.347076 783.938171,347.261536 794.971375,345.175964 
	C795.024170,344.609222 795.077026,344.042450 795.129822,343.475677 
	C778.928955,338.075500 761.205994,336.728821 745.794128,324.985352 
	C746.374512,327.958710 746.432556,329.501434 746.976196,330.848145 
	C752.393066,344.268433 757.841003,357.676697 763.377441,371.048065 
	C769.587524,386.046448 774.970947,401.227875 774.636597,417.793518 
	C774.440491,427.505707 771.789062,436.462738 766.633423,442.473663 
	C765.281738,438.310455 763.348206,434.953430 763.262024,431.549622 
	C763.081604,424.426117 763.420166,417.217834 764.355286,410.151520 
	C766.901550,390.910370 759.620300,375.313110 747.180176,361.461761 
	C746.791504,361.028931 746.047241,360.915527 745.016968,360.448334 
	C743.141052,367.762268 741.363037,374.817383 739.520447,381.855560 
	C733.362305,405.376587 723.532593,427.357727 711.773010,448.564575 
	C708.063782,455.253723 705.134338,462.373260 701.488525,469.100983 
	C700.574707,470.787354 698.282288,472.813446 696.603027,472.831909 
	C677.775269,473.039551 658.943481,472.889435 640.112915,472.806458 
	C639.495483,472.803711 638.879395,472.492493 637.963013,472.243713 
	C639.698364,465.567535 641.725525,459.121460 643.004272,452.530182 
	C644.892334,442.798248 644.906250,432.999420 642.249939,423.331146 
	C639.959778,414.995636 634.066895,409.422241 626.943298,408.823975 
	C617.593567,408.038757 612.262268,411.076447 608.261475,420.442017 
	C601.786316,435.599731 603.118103,451.023499 607.547424,466.421204 
	C608.045837,468.153687 608.683167,469.846222 609.483154,472.235474 
	C607.633667,472.493011 606.259705,472.846191 604.884521,472.851227 
	C587.553345,472.914398 570.220642,473.033752 552.892639,472.808563 
	C550.891724,472.782562 547.797852,471.246643 547.097290,469.605469 
	C536.453003,444.669342 525.448608,419.852081 515.930542,394.481018 
	C508.065491,373.516052 504.643188,351.360321 504.054230,328.938873 
	C503.913910,323.598175 502.067963,322.385101 497.293396,322.877533 
	C488.023560,323.833710 478.720520,325.122253 469.434692,325.094910 
	C459.182312,325.064728 448.915558,323.888397 438.695465,322.823334 
	C435.851440,322.526947 433.150635,320.856049 430.384094,319.815765 
	C430.356415,319.206116 430.328735,318.596436 430.301056,317.986786 
	C444.861694,315.239319 459.422302,312.491821 473.982941,309.744354 
	C474.063141,309.193024 474.143341,308.641724 474.223511,308.090424 
	C470.119873,306.789856 466.078857,305.224670 461.901428,304.235565 
	C445.746796,300.410522 429.561340,296.731995 414.161011,288.318024 
	C416.136932,296.601105 417.282593,305.196747 420.259430,313.102936 
	C426.705566,330.223267 434.227356,346.935120 441.049469,363.918396 
	C447.490387,379.952759 452.481934,396.432098 450.664825,413.968262 
	C449.972534,420.649506 447.550201,427.167725 445.704712,433.700500 
	C445.300842,435.130066 443.994934,436.304749 443.104431,437.596832 
	C442.504883,437.615204 441.905334,437.633575 441.305756,437.651947 
	C440.207794,433.658813 438.233307,429.674835 438.191315,425.670593 
	C438.099152,416.878998 438.657379,408.044342 439.535919,399.285980 
	C441.721039,377.502167 432.922821,360.192139 417.725555,344.042603 
	C416.890228,347.014160 416.179016,349.104187 415.718475,351.248077 
	C408.093109,386.746002 394.244385,419.778412 376.405914,451.273376 
	C373.131104,457.055359 370.784485,463.359192 367.596100,469.196411 
	C366.679077,470.875244 364.325836,472.837524 362.614807,472.852753 
	C341.120026,473.044617 319.622192,472.911041 298.125305,472.817719 
	C297.205841,472.813751 296.288239,472.392334 295.328644,472.155212 
	C297.415100,464.533356 300.035522,457.315674 301.283722,449.868011 
	C303.327179,437.675079 304.159729,425.331451 299.259674,413.456848 
	C295.964569,405.471619 290.491272,400.243042 281.336914,399.816833 
	C271.903809,399.377625 265.927460,404.236816 262.219299,412.332092 
	C256.151672,425.578094 256.196716,439.510345 258.405640,453.505341 
	C259.377563,459.663055 261.257416,465.677429 262.866821,472.344238 
	C261.071991,472.497925 259.494202,472.744720 257.915466,472.751190 
	C238.418152,472.831177 218.918945,472.751129 199.424652,473.025970 
	C195.049240,473.087646 193.087921,471.559357 191.391083,467.556183 
	C182.495041,446.568939 172.782745,425.920105 164.195190,404.811493 
	C151.815750,374.382202 144.552780,342.698303 143.289429,309.759094 
	C142.974045,301.535645 142.867661,301.732056 134.621368,302.228699 
	C117.526474,303.258209 100.411446,304.482239 83.303268,304.504089 
	C76.370735,304.512939 69.419083,301.652771 62.515408,299.939850 
	C61.394878,299.661804 60.479538,298.556793 59.469360,297.834015 
	C59.503143,297.364044 59.536926,296.894073 59.570709,296.424103 
	C76.095375,293.451569 92.620049,290.479034 109.144714,287.506500 
	C109.297829,286.915070 109.450943,286.323639 109.604057,285.732208 
	C106.119553,284.467896 102.712631,282.897369 99.137299,281.991577 
	C82.548012,277.788788 65.586533,274.735840 50.272881,266.579163 
	C31.276731,256.461060 14.872969,243.259933 7.426491,222.408554 
	C-2.132343,195.642166 2.212911,170.197906 18.687963,147.093277 
	C30.345442,130.744827 46.962883,120.498947 64.675743,112.047539 
	C75.161552,107.044403 86.026352,102.803146 96.853081,98.556763 
	C106.247368,94.872223 114.072739,89.820244 116.591255,79.115997 
	C117.556137,79.297523 118.368805,79.203354 118.775772,79.565323 
	C122.697990,83.053833 126.434090,81.865662 129.944901,79.043137 
	C133.256012,76.381165 134.912186,77.347496 136.574570,80.978256 
	C140.550476,89.661888 139.882004,97.294266 132.193970,102.841805 
	C123.352028,109.221977 113.638435,114.459969 104.035881,119.704140 
	C91.123116,126.756081 78.287071,133.805878 69.231018,145.901337 
	C61.547489,156.163620 58.566887,167.231598 63.722065,179.640594 
	C68.400330,190.901627 79.805237,197.170639 90.845123,192.236099 
	C102.573685,186.993744 113.460281,179.747040 124.377563,172.842728 
	C136.329407,165.284180 147.989029,157.394791 161.508133,152.634293 
	C176.845673,147.233490 192.261307,146.813751 207.598221,151.521545 
	C219.424942,155.151855 231.201645,154.422546 243.201370,153.775330 
	C253.977982,153.194092 264.983124,152.314438 275.568207,153.816345 
	C290.204834,155.893173 300.527466,165.819473 308.933502,177.415054 
	C322.165497,195.667755 329.531616,216.516129 334.494263,238.247482 
	C335.062256,240.734787 333.701202,244.841415 331.773865,246.525009 
	C320.760254,256.145782 309.829254,266.011017 297.874512,274.369080 
	C280.307404,286.651001 262.019836,297.923065 243.813644,309.263245 
	C230.770401,317.387512 218.183685,315.103790 206.066132,306.515106 
	C201.617203,303.361786 196.647888,300.942657 191.513260,298.922150 
	C201.619171,311.656342 211.981171,323.996613 230.384308,322.736237 
	C241.361298,321.984436 250.713593,316.652496 259.938171,311.317444 
	C268.854553,306.160645 277.527649,300.583221 286.768188,295.506653 
	C292.984314,315.443817 290.031830,334.168060 281.048523,352.944672 
	C286.540466,354.190491 291.808594,355.512299 297.129120,356.570801 
	C322.166107,361.551788 346.898956,360.829285 371.503448,353.437012 
	C383.913239,349.708588 392.880066,343.195343 397.773956,330.715240 
	C404.291901,314.093475 404.630707,297.084259 403.559357,279.670380 
	C403.104858,272.282654 401.985413,266.023590 394.697235,262.383606 
	C391.593262,260.833374 388.738708,258.783783 385.770813,256.961090 
	C381.397644,246.004425 378.878326,234.797668 380.328491,222.863770 
	C383.294037,198.458878 395.544098,179.973984 415.778229,166.475769 
	C430.266663,156.810486 446.225250,150.174194 462.398621,144.009460 
	C469.897797,141.151016 476.689667,137.638336 479.793976,129.456741 
	C480.139496,128.546143 482.215881,128.034393 483.566650,127.817268 
	C486.303955,127.377251 489.429016,127.973213 491.785889,126.857307 
	C495.544586,125.077713 497.118103,125.909447 498.464874,129.596298 
	C501.393738,137.614090 500.170563,144.179779 492.849243,148.848816 
	C482.777161,155.272141 472.075287,160.704086 461.682037,166.628845 
	C451.909760,172.199615 442.843933,178.636581 436.714233,188.375870 
	C431.089417,197.312988 429.887299,206.721710 434.578888,216.400909 
	C439.389740,226.326096 450.452759,230.772614 460.273163,225.643539 
	C470.694733,220.200470 480.499207,213.536911 490.384674,207.116119 
	C502.567322,199.203217 514.744629,190.874741 529.431274,189.048721 
	C538.669128,187.900146 548.689270,187.490982 557.518372,189.868973 
	C571.842285,193.726898 585.987183,193.264862 600.120239,191.578949 
	C622.186707,188.946686 638.758850,196.739182 650.951050,214.947327 
	C661.191162,230.239975 667.420776,247.166840 671.989929,264.854340 
	C673.105408,269.172394 672.156738,272.421143 668.873962,275.043579 
	C657.051758,284.487579 645.547363,294.393402 633.198364,303.096741 
	C620.039001,312.371185 606.101562,320.549774 592.421692,329.074921 
	C581.344604,335.977997 570.660461,334.505951 560.258545,327.277985 
	C555.964783,324.294373 551.417542,321.675507 546.221924,318.410950 
	C551.174194,333.143005 572.270325,343.986176 586.060242,340.050781 
	C600.246765,336.002167 612.068909,327.572235 624.334412,319.932404 
	C625.318848,319.319244 626.310913,318.718353 627.650391,318.506409 
	C628.104065,320.052704 628.143982,321.214081 628.320068,322.354401 
	C629.191101,327.992615 630.539368,333.604919 630.800476,339.268738 
	C630.925049,341.972626 628.199951,344.767273 628.188843,347.526550 
	C628.166809,352.975891 627.219421,357.769684 624.447937,362.629333 
	C621.517822,367.766998 623.016052,369.778229 629.146423,370.970673 
	C633.840332,371.883698 638.536560,372.798889 643.256165,373.562622 
	C650.200684,374.686432 657.821655,373.181763 663.549438,378.910828 
	C668.918701,377.623871 675.519775,382.310028 679.827271,375.520294 
	C680.177307,374.968567 681.695435,375.222137 682.635986,374.971130 
	C694.390015,371.834625 706.147583,368.709900 717.871887,365.465393 
	C719.077759,365.131653 720.278259,364.229218 721.137329,363.279510 
	C727.005676,356.792328 731.103455,349.075470 732.788330,340.704803 
	C735.290344,328.274963 736.922852,315.712158 735.160828,302.804962 
	C733.511108,290.720398 731.347839,286.520935 722.296204,283.963837 
	C721.530884,262.877930 730.753418,246.791367 747.343567,234.569824 
	C759.244629,225.802628 772.875549,220.375839 786.571594,215.191986 
	C792.206238,213.059326 797.096802,210.234802 799.776672,204.545578 
	C799.988708,204.095490 800.176208,203.312744 800.465210,203.268127 
	C804.776794,202.602493 809.147400,201.403305 813.409058,201.699234 
	C815.696594,201.858093 817.063660,210.167511 814.897644,213.153992 
	C812.440369,216.542084 809.298401,219.774292 805.767944,221.971939 
	C798.581665,226.445282 790.792786,229.940536 783.514038,234.278107 
	C774.988831,239.358490 767.309631,245.403748 763.688049,255.254593 
	C761.326355,261.678284 762.114319,267.731506 765.613525,273.425873 
	C769.747070,280.152527 777.088074,282.735199 784.778137,279.120880 
	C791.644165,275.893768 797.820435,271.227203 804.432190,267.423676 
	C813.341370,262.298553 822.173706,256.972260 831.415344,252.511978 
	C840.279785,248.233734 850.357239,248.070419 859.332886,250.652679 
	C871.287903,254.092072 883.105408,254.017761 894.898071,252.536041 
	C914.988342,250.011780 928.614319,259.141510 937.336975,275.705139 
	C943.086487,286.622833 946.606201,298.764160 950.500366,310.563507 
	C951.192749,312.661407 949.578247,316.608917 947.736145,318.261169 
	C940.816162,324.468292 933.608154,330.424561 926.046204,335.828644 
	C915.768799,343.173340 904.923279,349.719574 894.585449,356.984070 
	C882.203308,365.685150 870.326721,365.508850 858.512939,356.098755 
	C857.498840,355.291046 856.289429,354.718964 855.133545,354.107788 
	C854.935242,354.002960 854.548889,354.253845 854.246277,354.341309 
	C859.576050,365.532257 874.221130,373.936707 888.248535,367.265442 
	C895.580200,363.778595 902.508362,359.441498 909.605774,355.465027 
	C912.183594,354.020752 914.723450,352.508545 917.767822,351.362000 
	C918.850830,353.909973 919.825623,356.097443 919.978394,358.340851 
	C920.718567,369.211060 919.989563,379.875305 914.093567,389.463318 
	C914.812195,390.054047 915.140930,390.530853 915.566772,390.644775 
	C936.901489,396.352753 958.187256,397.124969 979.315369,389.713898 
	C984.337952,387.952209 988.891541,385.817596 991.861694,380.623596 
	C999.371216,367.491241 999.487976,353.353912 998.780090,338.966888 
	C998.703674,337.414764 999.075806,335.840637 999.239868,334.276703 
M138.284042,231.482132 
	C146.815536,234.188095 156.262268,224.663177 154.765854,216.521240 
	C153.561707,209.969528 146.601700,204.451355 140.031174,204.538940 
	C134.353607,204.614639 129.706406,209.169724 128.221100,216.114929 
	C126.874611,222.411026 130.452087,228.208160 138.284042,231.482132 
M512.463623,243.363159 
	C506.174530,236.310913 499.903015,234.957687 494.900726,239.573563 
	C490.172485,243.936600 489.208801,250.941193 492.656036,255.889008 
	C496.025635,260.725372 502.245148,262.317291 507.215820,259.615814 
	C513.272095,256.324310 515.328064,250.651779 512.463623,243.363159 
M818.304565,306.778015 
	C819.107483,306.566010 819.939026,306.427948 820.708679,306.129944 
	C825.734131,304.184326 828.216736,299.153992 826.477295,294.509644 
	C824.904480,290.310364 818.586060,287.027252 814.609985,288.343353 
	C810.239502,289.789978 807.589050,295.432159 809.010437,300.299591 
	C810.252502,304.552673 813.401917,306.323486 818.304565,306.778015 
z"/>
<path fill="#8FC4C7" opacity="1.000000" stroke="none" 
	d="
M385.419434,256.916992 
	C388.738708,258.783783 391.593262,260.833374 394.697235,262.383606 
	C401.985413,266.023590 403.104858,272.282654 403.559357,279.670380 
	C404.630707,297.084259 404.291901,314.093475 397.773956,330.715240 
	C392.880066,343.195343 383.913239,349.708588 371.503448,353.437012 
	C346.898956,360.829285 322.166107,361.551788 297.129120,356.570801 
	C291.808594,355.512299 286.540466,354.190491 281.048523,352.944672 
	C290.031830,334.168060 292.984314,315.443817 287.117126,295.467621 
	C293.295197,289.755524 299.546722,284.352875 305.882538,279.050995 
	C318.870544,268.182434 332.034698,257.519562 344.850616,246.452713 
	C349.635223,242.321136 354.247498,242.154556 359.493805,244.746765 
	C366.932587,248.422241 374.360657,252.119537 381.814789,255.763611 
	C382.835907,256.262817 383.980560,256.509369 385.419434,256.916992 
z"/>
<path fill="#CC592A" opacity="1.000000" stroke="none" 
	d="
M631.863770,315.019287 
	C639.845520,308.327789 647.804077,301.608246 655.815369,294.952209 
	C664.748718,287.530029 673.791260,280.237946 682.662170,272.742462 
	C686.548157,269.459015 690.519409,270.523346 694.303955,272.263489 
	C702.428284,275.999084 710.384216,280.100372 718.423157,284.023254 
	C719.292908,284.447632 720.254822,284.682953 721.615295,285.364899 
	C724.534241,287.883057 727.115234,289.938110 729.444214,292.247345 
	C730.537964,293.331909 731.735840,294.844482 731.884338,296.267609 
	C733.471863,311.486572 734.579834,326.903839 729.678650,341.593750 
	C726.243103,351.891113 721.565002,362.182678 709.253540,365.470642 
	C704.003967,366.872589 698.923157,368.941498 693.642944,370.186981 
	C681.127869,373.138947 668.416382,373.930939 655.636536,372.368439 
	C647.930664,371.426331 640.294250,369.896820 632.581421,369.036255 
	C626.718994,368.382141 626.773865,367.572113 628.316223,361.830963 
	C630.827881,352.481842 632.739258,342.862579 633.670837,333.237946 
	C634.247620,327.279205 632.543823,321.099701 631.863770,315.019287 
z"/>
<path fill="#BBBCC0" opacity="1.000000" stroke="none" 
	d="
M999.123413,333.993866 
	C999.075806,335.840637 998.703674,337.414764 998.780090,338.966888 
	C999.487976,353.353912 999.371216,367.491241 991.861694,380.623596 
	C988.891541,385.817596 984.337952,387.952209 979.315369,389.713898 
	C958.187256,397.124969 936.901489,396.352753 915.566772,390.644775 
	C915.140930,390.530853 914.812195,390.054047 914.093567,389.463318 
	C919.989563,379.875305 920.718567,369.211060 919.978394,358.340851 
	C919.825623,356.097443 918.850830,353.909973 918.128540,351.331238 
	C931.312805,339.763092 944.688782,328.636566 957.890015,317.306366 
	C961.360901,314.327332 964.816406,314.208496 968.425659,316.226471 
	C978.674194,321.956696 988.820496,327.869873 999.123413,333.993866 
z"/>
<path fill="#1F2034" opacity="1.000000" stroke="none" 
	d="
M396.196594,66.262589 
	C395.897308,67.097824 395.739899,67.570961 395.556122,68.033623 
	C391.785828,77.525352 391.785248,77.525124 380.726379,76.921211 
	C383.101471,52.355247 385.473694,27.819052 387.855774,3.181033 
	C391.018280,3.181033 393.787140,3.181033 396.899170,3.181033 
	C395.137451,20.063501 393.401062,36.703537 391.664642,53.343571 
	C391.981415,53.435188 392.298187,53.526806 392.614929,53.618423 
	C395.411682,46.484219 398.517548,39.450993 400.892761,32.179108 
	C402.391205,27.591509 404.810425,26.087694 409.722534,27.548326 
	C410.784760,36.670284 411.873047,46.016232 412.961365,55.362175 
	C413.201660,55.367352 413.441956,55.372528 413.682281,55.377705 
	C416.921173,38.074024 420.160095,20.770342 423.442139,3.236147 
	C426.337921,3.236147 429.094116,3.236147 432.360016,3.236147 
	C427.506287,27.826880 422.691162,52.221943 417.825134,76.874962 
	C414.194244,76.874962 410.588409,76.874962 406.569946,76.874962 
	C405.559235,68.101067 404.547363,59.316925 403.535461,50.532787 
	C403.198456,50.497681 402.861450,50.462578 402.524445,50.427475 
	C400.458344,55.583519 398.392273,60.739567 396.196594,66.262589 
z"/>
<path fill="#1E1F33" opacity="1.000000" stroke="none" 
	d="
M663.083740,29.066975 
	C664.411438,20.256359 665.693420,11.884822 667.106873,2.654917 
	C674.498535,3.029252 681.934753,2.971453 689.242126,3.913060 
	C695.110962,4.669307 698.539124,8.834317 699.328003,14.745536 
	C700.549561,23.898655 698.239502,31.860451 691.587891,37.237915 
	C693.429565,41.599815 696.359375,45.516598 696.448547,49.497017 
	C696.566223,54.749542 695.528870,60.615028 693.107483,65.230415 
	C684.901611,80.871353 669.844849,76.556900 656.055420,77.130791 
	C658.428589,60.945007 660.733398,45.225529 663.083740,29.066975 
M686.802673,51.780910 
	C684.967224,44.668499 680.715637,42.795166 670.404541,44.723572 
	C669.358826,51.833626 668.300171,59.031475 667.242493,66.223213 
	C679.474915,68.372787 685.253296,64.285591 686.802673,51.780910 
M682.876831,32.767395 
	C688.281006,29.081606 691.103699,22.951729 689.390686,18.014521 
	C687.296082,11.978028 681.924866,13.875463 677.562805,13.446538 
	C676.796143,13.371154 675.997559,13.619410 675.026917,13.741755 
	C674.063965,19.934299 673.119263,25.960045 672.204773,31.990364 
	C672.136047,32.443649 672.282654,32.929577 672.398193,34.099525 
	C675.689209,33.733746 678.905212,33.376312 682.876831,32.767395 
z"/>
<path fill="#1F1F33" opacity="1.000000" stroke="none" 
	d="
M572.369019,10.344924 
	C572.786621,7.800388 573.111572,5.684896 573.456726,3.438168 
	C580.183777,3.438168 586.857666,2.736465 593.319031,3.608874 
	C602.170227,4.803956 607.619263,10.899792 608.875183,20.058798 
	C610.768860,33.868656 608.995728,47.303337 602.875610,59.885113 
	C597.299072,71.349220 588.173096,77.586487 575.030579,77.163948 
	C571.073364,77.036720 567.108582,77.144264 562.588867,77.144264 
	C565.864929,54.699688 569.070679,32.736828 572.369019,10.344924 
M586.282288,64.089111 
	C589.271240,60.409023 593.612732,57.161701 594.958496,52.955818 
	C597.506165,44.994164 599.247803,36.527302 599.658997,28.188229 
	C600.251892,16.164049 593.656616,11.510232 581.394653,14.154025 
	C578.862061,31.389078 576.314758,48.723743 573.588928,67.273552 
	C578.338745,66.176376 581.979858,65.335304 586.282288,64.089111 
z"/>
<path fill="#1F1F33" opacity="1.000000" stroke="none" 
	d="
M372.661621,4.087927 
	C377.893829,7.624323 380.095917,12.660304 380.880920,18.198168 
	C383.111084,33.930946 380.883759,49.169746 373.665222,63.288376 
	C371.270660,67.971947 367.307251,72.453041 362.963104,75.417969 
	C353.300476,82.012817 340.993256,77.729866 338.396637,66.397011 
	C336.510986,58.167141 336.596283,49.252544 337.204285,40.743397 
	C337.967407,30.063473 341.184326,19.827503 347.804077,11.074567 
	C354.478210,2.249795 362.877136,-0.118387 372.661621,4.087927 
M350.618103,66.288551 
	C357.059753,68.253815 361.099152,66.443352 364.917267,59.190739 
	C370.221161,49.115932 371.978027,38.160271 371.959015,26.897934 
	C371.945648,18.990261 369.478302,14.056552 365.371307,13.054599 
	C360.394135,11.840360 355.478149,15.256169 352.029388,22.845411 
	C347.194763,33.484314 345.253571,44.765511 346.228546,56.365734 
	C346.501007,59.607327 348.655090,62.690765 350.618103,66.288551 
z"/>
<path fill="#1E1F33" opacity="1.000000" stroke="none" 
	d="
M480.786316,28.598885 
	C482.031342,19.950489 483.210754,11.739244 484.431305,3.241596 
	C490.894043,3.241596 497.215546,2.737801 503.419373,3.376511 
	C510.279633,4.082801 514.211548,8.145148 515.262878,14.992523 
	C517.035706,26.538803 513.539612,35.994526 503.920807,41.728046 
	C506.648712,53.592972 509.275970,65.020195 511.991913,76.833130 
	C508.529877,76.833130 505.447693,76.833130 501.697723,76.833130 
	C500.132202,68.984482 498.587952,60.889187 496.886658,52.827026 
	C495.564209,46.560165 494.085358,45.340164 487.862000,45.307076 
	C486.290955,55.677383 484.705139,66.145050 483.081421,76.862946 
	C480.028320,76.862946 477.124573,76.862946 473.567474,76.862946 
	C475.969849,60.800583 478.345245,44.918308 480.786316,28.598885 
M505.051758,16.742428 
	C501.676086,11.915202 496.930084,13.771924 492.422699,13.594486 
	C491.361420,20.964191 490.379669,27.781639 489.396423,34.609470 
	C501.317780,35.878586 507.547150,29.035280 505.051758,16.742428 
z"/>
<path fill="#1C1D31" opacity="1.000000" stroke="none" 
	d="
M437.763672,18.624231 
	C437.950897,17.030239 438.013947,15.861566 438.194824,14.711419 
	C438.789062,10.932444 439.425995,7.160186 440.079224,3.186688 
	C450.737762,3.186688 461.345612,3.186688 472.396790,3.186688 
	C471.888336,6.616409 471.410583,9.838998 470.897125,13.302397 
	C463.390411,13.302397 456.097748,13.302397 448.171478,13.302397 
	C447.135345,19.929249 446.124969,26.391382 445.019592,33.461052 
	C452.515533,33.461052 459.578125,33.461052 466.975861,33.461052 
	C466.483490,37.135315 466.068542,40.231525 465.582458,43.858776 
	C458.335602,43.858776 451.093994,43.858776 443.540985,43.858776 
	C442.413483,51.501976 441.357147,58.662540 440.198395,66.517410 
	C447.940918,66.517410 455.304657,66.517410 463.064575,66.517410 
	C462.547974,70.277367 462.125702,73.350883 461.654907,76.777618 
	C450.878601,76.777618 440.155823,76.777618 429.061310,76.777618 
	C431.951416,57.452625 434.822418,38.255329 437.763672,18.624231 
z"/>
<path fill="#1C1D31" opacity="1.000000" stroke="none" 
	d="
M555.774658,13.460908 
	C550.978638,13.462334 546.644104,13.316916 542.332397,13.566438 
	C541.225342,13.630500 539.414612,14.797611 539.248779,15.700630 
	C538.206238,21.378534 537.537048,27.124987 536.665833,33.416851 
	C544.028320,33.416851 550.929443,33.416851 558.386292,33.416851 
	C557.898254,37.225506 557.484131,40.456898 557.033691,43.972164 
	C549.682800,43.972164 542.565002,43.972164 535.036072,43.972164 
	C533.921326,51.529045 532.843567,58.834816 531.684021,66.695290 
	C539.494080,66.695290 546.742676,66.695290 554.495483,66.695290 
	C553.971741,70.439163 553.524109,73.639282 553.059204,76.962593 
	C542.245178,76.962593 531.808044,76.962593 520.595215,76.962593 
	C524.212341,52.395859 527.800293,28.026869 531.437134,3.325776 
	C542.232056,3.325776 552.949341,3.325776 563.673523,3.325776 
	C562.174622,15.405520 563.791382,13.231936 555.774658,13.460908 
z"/>
<path fill="#1E1F33" opacity="1.000000" stroke="none" 
	d="
M293.865631,51.712791 
	C296.252960,35.331970 298.588135,19.390070 300.972717,3.110834 
	C307.375793,3.110834 313.678894,2.707804 319.908356,3.213225 
	C327.630920,3.839792 332.535278,8.624302 334.403809,16.213177 
	C337.635620,29.338917 330.010681,45.569942 318.110687,49.700455 
	C313.677094,51.239361 308.708099,51.235813 303.376251,52.025520 
	C302.178192,59.873772 300.911346,68.172478 299.594086,76.801537 
	C296.520355,76.801537 293.465698,76.801537 290.057373,76.801537 
	C291.326294,68.474091 292.569885,60.312901 293.865631,51.712791 
M322.142273,15.246024 
	C317.896912,14.444885 313.651550,13.643746 309.135742,12.791573 
	C307.639343,22.816383 306.322418,31.638641 304.976044,40.658497 
	C311.954071,41.429539 318.272797,40.957451 321.934326,34.520168 
	C325.307159,28.590321 327.163086,22.225494 322.142273,15.246024 
z"/>
<path fill="#1F2033" opacity="1.000000" stroke="none" 
	d="
M742.143066,5.904879 
	C745.512390,0.447268 750.317261,4.155655 755.333862,2.410592 
	C749.020935,13.669521 743.905212,24.122545 737.561035,33.767509 
	C729.837280,45.509773 726.068054,58.226402 725.003418,71.999718 
	C724.877380,73.630585 724.489563,75.241203 724.203918,76.977539 
	C721.103760,76.977539 718.308167,76.977539 714.787781,76.977539 
	C715.646973,70.722183 716.226013,64.526611 717.414124,58.450130 
	C718.462219,53.089890 718.215515,48.025860 716.708618,42.777451 
	C712.958130,29.714733 709.522156,16.561691 705.886353,3.173958 
	C709.641663,3.173958 713.077393,3.173958 716.696899,3.173958 
	C719.519470,14.367710 722.311707,25.440979 725.296448,37.277729 
	C731.066345,26.548153 736.521423,16.404129 742.143066,5.904879 
z"/>
<path fill="#78615E" opacity="1.000000" stroke="none" 
	d="
M631.568176,315.099609 
	C632.543823,321.099701 634.247620,327.279205 633.670837,333.237946 
	C632.739258,342.862579 630.827881,352.481842 628.316223,361.830963 
	C626.773865,367.572113 626.718994,368.382141 632.581421,369.036255 
	C640.294250,369.896820 647.930664,371.426331 655.636536,372.368439 
	C668.416382,373.930939 681.127869,373.138947 693.642944,370.186981 
	C698.923157,368.941498 704.003967,366.872589 709.253540,365.470642 
	C721.565002,362.182678 726.243103,351.891113 729.678650,341.593750 
	C734.579834,326.903839 733.471863,311.486572 731.884338,296.267609 
	C731.735840,294.844482 730.537964,293.331909 729.444214,292.247345 
	C727.115234,289.938110 724.534241,287.883057 721.983276,285.396667 
	C721.923157,284.867554 721.936340,284.665619 722.122803,284.213776 
	C731.347839,286.520935 733.511108,290.720398 735.160828,302.804962 
	C736.922852,315.712158 735.290344,328.274963 732.788330,340.704803 
	C731.103455,349.075470 727.005676,356.792328 721.137329,363.279510 
	C720.278259,364.229218 719.077759,365.131653 717.871887,365.465393 
	C706.147583,368.709900 694.390015,371.834625 682.635986,374.971130 
	C681.695435,375.222137 680.177307,374.968567 679.827271,375.520294 
	C675.519775,382.310028 668.918701,377.623871 663.549438,378.910828 
	C657.821655,373.181763 650.200684,374.686432 643.256165,373.562622 
	C638.536560,372.798889 633.840332,371.883698 629.146423,370.970673 
	C623.016052,369.778229 621.517822,367.766998 624.447937,362.629333 
	C627.219421,357.769684 628.166809,352.975891 628.188843,347.526550 
	C628.199951,344.767273 630.925049,341.972626 630.800476,339.268738 
	C630.539368,333.604919 629.191101,327.992615 628.320068,322.354401 
	C628.143982,321.214081 628.104065,320.052704 627.997131,318.492493 
	C629.086121,317.115936 630.179382,316.147919 631.568176,315.099609 
z"/>
<path fill="#EDEEEE" opacity="1.000000" stroke="none" 
	d="
M223.188171,598.358521 
	C207.525711,598.420044 192.294342,598.420044 178.012192,598.420044 
	C178.578659,594.828979 179.601532,591.177490 179.653351,587.512268 
	C179.848511,573.709534 179.837448,559.900757 179.630402,546.098328 
	C179.589951,543.401611 178.329788,540.723083 177.489059,537.484924 
	C177.163635,537.643494 177.849838,537.014160 178.529480,537.021179 
	C192.656204,537.166382 206.784180,537.296631 220.907455,537.623413 
	C228.086807,537.789551 232.765823,541.965881 234.999298,548.399231 
	C237.214600,554.780212 235.619965,560.528076 230.069244,564.855164 
	C229.600418,565.220642 229.324890,565.834045 228.602554,566.819153 
	C237.403442,571.710571 239.522507,579.329285 236.623566,588.128235 
	C234.682632,594.019348 229.954315,597.460144 223.188171,598.358521 
M187.379242,582.463989 
	C187.385132,584.793213 187.026184,587.206482 187.535904,589.419678 
	C187.834259,590.715149 189.505142,592.647705 190.580765,592.662292 
	C200.387680,592.795715 210.217926,592.892700 220.003143,592.332581 
	C226.204330,591.977539 229.859543,587.915344 230.198242,582.623779 
	C230.583389,576.606567 227.482071,571.747620 221.189636,570.791077 
	C214.015152,569.700500 206.660797,569.578369 199.377884,569.464294 
	C187.380280,569.276306 187.378006,569.421631 187.379242,582.463989 
M187.380386,556.281433 
	C188.037201,558.826660 185.449463,563.398621 190.180038,563.439392 
	C200.598007,563.529236 211.035843,562.923157 221.439636,562.218384 
	C225.357635,561.952881 227.549271,558.997314 228.004242,555.142090 
	C228.490936,551.018066 227.233566,547.401672 223.319534,545.526367 
	C220.990128,544.410278 218.312378,543.635376 215.744888,543.481689 
	C210.278824,543.154541 204.782532,543.310486 199.298615,543.308594 
	C187.358917,543.304504 187.358917,543.314758 187.380386,556.281433 
z"/>
<path fill="#ECEDED" opacity="1.000000" stroke="none" 
	d="
M670.605103,576.443726 
	C666.245972,589.724854 657.391113,597.167786 644.073853,599.612976 
	C631.057983,602.002930 618.829773,600.558105 608.222839,592.125122 
	C597.662659,583.729431 595.059265,572.305237 598.079407,559.777405 
	C600.820007,548.409119 608.571655,541.100403 619.771912,537.806641 
	C630.599060,534.622620 641.633362,534.431946 652.046692,538.902832 
	C667.453735,545.517761 673.350525,557.901001 670.605103,576.443726 
M606.957825,558.901550 
	C604.039124,568.435913 604.714233,577.399536 611.936890,584.865417 
	C622.009338,595.277039 640.467285,596.835571 652.385315,588.558777 
	C663.523071,580.823853 666.762329,565.253296 659.453674,554.582397 
	C647.116516,536.569336 617.031738,538.642212 606.957825,558.901550 
z"/>
<path fill="#EAEAEA" opacity="1.000000" stroke="none" 
	d="
M813.991455,573.004761 
	C811.614868,572.227478 809.622864,570.690552 807.553040,570.577393 
	C801.240540,570.232361 794.895874,570.529602 788.568176,570.383850 
	C785.680847,570.317383 784.269531,571.107666 784.398071,574.300354 
	C784.598877,579.290527 784.557922,584.297058 784.423706,589.291321 
	C784.352295,591.950256 785.492981,592.763611 787.984314,592.749451 
	C799.312927,592.684875 810.644287,592.837524 821.968933,592.615784 
	C823.996704,592.576172 825.997192,591.140259 828.346191,590.216919 
	C828.346191,593.991455 828.346191,597.828552 828.346191,600.928894 
	C824.920532,600.319092 821.567078,599.258179 818.197510,599.204102 
	C805.039124,598.993103 791.875610,599.100708 778.714050,599.090210 
	C777.092102,599.088928 775.470215,599.090088 774.781372,599.090088 
	C775.343750,594.327881 776.229492,590.025940 776.291260,585.712280 
	C776.484375,572.220154 776.461243,558.722412 776.280701,545.230042 
	C776.248718,542.840088 775.058838,540.465576 774.208496,537.374512 
	C775.033936,537.286743 776.667114,536.969177 778.301575,536.961853 
	C791.962769,536.901062 805.625671,536.995911 819.284424,536.796143 
	C822.156433,536.754089 825.013489,535.692566 828.123779,535.049927 
	C828.123779,538.069214 828.123779,542.050476 828.123779,545.194092 
	C824.821533,544.565002 821.802856,543.561707 818.762207,543.490051 
	C809.270996,543.266357 799.771423,543.381287 790.275085,543.399048 
	C788.498779,543.402405 786.722656,543.563965 784.452271,543.677185 
	C784.452271,549.739868 784.302795,555.366333 784.592773,560.970093 
	C784.643860,561.956970 786.507019,563.621826 787.578857,563.658875 
	C794.567688,563.900635 801.576294,563.953674 808.561462,563.662415 
	C810.443176,563.583923 812.266235,562.099792 814.340393,561.159302 
	C814.340393,565.125366 814.340393,569.010803 813.991455,573.004761 
z"/>
<path fill="#EAEAEA" opacity="1.000000" stroke="none" 
	d="
M701.295837,553.992920 
	C701.304138,563.969116 701.304138,563.971924 710.793884,563.973145 
	C719.627014,563.974243 728.463318,563.830933 737.291748,564.033508 
	C740.845947,564.114990 742.000427,562.880737 741.794067,559.403381 
	C741.537842,555.085449 741.950256,550.726379 741.663635,546.412354 
	C741.473572,543.552979 740.563782,540.741394 739.885803,537.472534 
	C743.484497,537.472534 747.961121,537.472534 753.344116,537.472534 
	C748.415161,541.439941 749.757812,546.512939 749.732239,551.260376 
	C749.663818,563.926392 749.588684,576.595093 749.807556,589.257751 
	C749.859497,592.264954 751.053284,595.252319 751.801697,598.606689 
	C748.128723,598.606689 743.580322,598.606689 739.852234,598.606689 
	C740.525574,595.216125 741.462219,592.240051 741.638367,589.219666 
	C741.929016,584.236389 741.666992,579.223328 741.761597,574.225098 
	C741.806335,571.859741 741.231323,570.416931 738.487183,570.428406 
	C727.154480,570.475769 715.819641,570.342896 704.491333,570.567139 
	C703.403564,570.588684 701.486328,572.586060 701.433655,573.734131 
	C701.143738,580.053345 701.129456,586.402832 701.441589,592.721130 
	C701.532898,594.568542 703.002991,596.347778 704.029663,598.565430 
	C699.651733,598.565430 695.080200,598.565430 691.322449,598.565430 
	C691.924500,595.119690 692.961731,591.800110 693.007385,588.466980 
	C693.198914,574.469849 693.187317,560.467651 693.019836,546.469971 
	C692.985657,543.607056 691.959290,540.756042 691.309265,537.493042 
	C694.968811,537.493042 699.551514,537.493042 705.046082,537.493042 
	C698.986389,542.236511 702.109436,548.224121 701.295837,553.992920 
z"/>
<path fill="#E9E9E9" opacity="1.000000" stroke="none" 
	d="
M104.814194,593.468689 
	C105.177803,595.292114 105.770195,596.769836 106.514076,598.625488 
	C101.949066,598.625488 97.407036,598.625488 93.939415,598.625488 
	C98.034508,590.279053 102.227631,581.969360 106.208664,573.559265 
	C111.253471,562.901978 116.211899,552.201111 120.992668,541.423706 
	C121.843941,539.504700 121.649361,537.121643 122.039856,534.184570 
	C125.807480,534.184570 130.709793,534.184570 134.541809,534.184570 
	C135.109863,537.322205 135.076965,540.166626 136.138550,542.516602 
	C143.442307,558.684875 150.909302,574.780823 158.498199,590.817505 
	C159.765717,593.495972 161.882401,595.772583 163.805450,598.518799 
	C159.394836,598.518799 154.619003,598.518799 149.695663,598.518799 
	C153.575546,592.178040 148.016907,587.883667 145.955368,583.044434 
	C145.324829,581.564270 141.150604,581.123840 138.570297,581.033447 
	C131.258774,580.777527 123.917488,581.231201 116.617157,580.848145 
	C112.119926,580.612244 109.372513,581.869263 108.046822,586.301880 
	C107.340393,588.663757 106.062775,590.854858 104.814194,593.468689 
M115.302338,570.436401 
	C115.054924,571.505310 114.807518,572.574219 114.503441,573.887939 
	C123.767693,573.887939 132.625504,573.887939 142.299667,573.887939 
	C137.565857,563.625793 133.122116,553.992493 128.678391,544.359192 
	C128.175720,544.407532 127.673035,544.455872 127.170357,544.504211 
	C123.343285,552.895264 119.516205,561.286316 115.302338,570.436401 
z"/>
<path fill="#EBEBEB" opacity="1.000000" stroke="none" 
	d="
M919.767395,589.602173 
	C919.780579,575.161743 919.897644,561.178955 919.706421,547.200378 
	C919.664795,544.160156 918.518921,541.135071 917.737549,537.417236 
	C917.346741,537.628784 917.994324,536.969788 918.633972,536.977356 
	C932.436340,537.139893 946.257812,537.000732 960.032532,537.730957 
	C969.290894,538.221802 974.494080,545.090576 974.294067,554.785828 
	C974.106812,563.857117 968.297119,570.362915 959.205505,570.844482 
	C950.572266,571.301697 941.895508,571.364136 933.254822,571.082397 
	C928.707947,570.934204 927.408386,572.548584 927.703186,576.819763 
	C928.011841,581.292725 927.537048,585.821472 927.876770,590.289917 
	C928.073242,592.873108 929.201843,595.385315 930.050598,598.430786 
	C926.152100,598.430786 921.524170,598.430786 917.411316,598.430786 
	C918.247314,595.452576 919.003967,592.756958 919.767395,589.602173 
M927.763428,562.285095 
	C928.647034,563.219177 929.523193,564.955200 930.415344,564.963440 
	C939.393066,565.046631 948.408386,565.287537 957.341553,564.580261 
	C963.962280,564.056030 967.138855,559.551819 966.745056,553.337280 
	C966.373413,547.472534 962.828186,543.851074 956.252747,543.576294 
	C947.947144,543.229187 939.618591,543.466858 931.301941,543.329346 
	C928.349976,543.280579 927.654663,544.712463 927.727905,547.343323 
	C927.857422,551.998535 927.754822,556.660217 927.763428,562.285095 
z"/>
<path fill="#F1F1F1" opacity="1.000000" stroke="none" 
	d="
M584.566467,534.815674 
	C585.474304,538.450928 586.030945,542.262939 586.708740,546.904663 
	C577.946716,541.283386 569.515503,544.168274 561.448669,543.769775 
	C560.800598,543.737793 559.441101,545.849487 559.433105,546.972290 
	C559.327026,561.968140 559.314148,576.966614 559.537109,591.960571 
	C559.567810,594.030701 560.991028,596.080139 561.933228,598.572021 
	C557.616760,598.572021 553.217102,598.572021 549.542603,598.572021 
	C550.240845,595.345337 551.349121,592.493042 551.395630,589.623596 
	C551.619873,575.796265 551.430054,561.961975 551.679688,548.135437 
	C551.749756,544.253418 550.329834,543.231018 546.744446,543.438721 
	C542.426392,543.688904 538.065308,543.264465 533.756897,543.586609 
	C531.181458,543.779236 528.671143,544.842285 525.739014,545.617920 
	C525.739014,542.527893 525.739014,538.766174 525.739014,535.780823 
	C529.355225,536.359802 532.905273,537.368774 536.469238,537.420288 
	C549.797180,537.612915 563.132141,537.623047 576.458435,537.375916 
	C579.057861,537.327698 581.630371,535.824585 584.566467,534.815674 
z"/>
<path fill="#E7E8E8" opacity="1.000000" stroke="none" 
	d="
M480.005493,553.941528 
	C482.847595,557.598511 485.473480,560.972046 488.785309,565.226685 
	C494.446655,557.141357 499.651459,549.923523 504.519165,542.485107 
	C505.131226,541.549866 503.967987,539.452881 503.530762,537.452454 
	C508.182526,537.452454 513.119446,537.452454 517.203735,537.452454 
	C509.770020,547.548340 502.051605,557.767822 494.689148,568.237732 
	C493.092407,570.508301 492.284882,573.624939 491.981842,576.445190 
	C491.539368,580.562866 491.610138,584.789124 491.977814,588.923218 
	C492.260681,592.103638 493.338226,595.213379 494.138611,598.685303 
	C490.453217,598.685303 485.935913,598.685303 481.246674,598.685303 
	C486.212616,590.304810 483.300415,581.309692 483.779297,572.643066 
	C483.834167,571.650330 482.937103,570.492065 482.248077,569.588501 
	C475.784637,561.112549 469.255432,552.686768 462.780243,544.219727 
	C460.974182,541.858154 459.284149,539.407837 457.895050,537.487854 
	C461.781281,537.487854 467.120789,537.487854 472.999054,537.487854 
	C469.624329,541.862488 473.083893,544.643188 475.229523,547.718323 
	C476.656250,549.763245 478.263092,551.682495 480.005493,553.941528 
z"/>
<path fill="#E7E7E7" opacity="1.000000" stroke="none" 
	d="
M880.999146,592.749878 
	C884.665222,592.746521 887.849609,592.952698 890.993469,592.684326 
	C894.573853,592.378784 898.118103,591.649963 901.955200,591.062683 
	C901.955200,594.044617 901.955200,597.882935 901.955200,600.869568 
	C898.107849,600.259155 894.531311,599.255249 890.940308,599.200317 
	C877.944214,599.001587 864.943298,599.131958 851.944153,599.107788 
	C850.388672,599.104919 848.833557,598.915649 848.040955,598.863281 
	C848.806213,594.919250 849.974304,591.546997 850.028320,588.157043 
	C850.248657,574.328064 850.236877,560.492188 850.045532,546.662537 
	C850.005310,543.755371 848.843994,540.863708 848.097351,537.506714 
	C851.781006,537.506714 856.368835,537.506714 860.020874,537.506714 
	C859.428955,540.979065 858.377869,544.450012 858.324463,547.936218 
	C858.120239,561.265564 858.350708,574.601501 858.160217,587.931213 
	C858.107117,591.647217 859.284729,592.952698 863.003296,592.799805 
	C868.826172,592.560425 874.666565,592.744812 880.999146,592.749878 
z"/>
<path fill="#EFEFEF" opacity="1.000000" stroke="none" 
	d="
M401.061707,543.500244 
	C396.959045,543.937256 393.343811,544.376160 389.290924,544.868164 
	C389.290924,542.306213 389.290924,538.717163 389.290924,535.969727 
	C392.844666,536.479431 396.435883,537.389343 400.039246,537.440369 
	C413.025543,537.624329 426.017303,537.619873 439.003906,537.449463 
	C442.127869,537.408447 445.239807,536.454468 448.672668,535.866333 
	C448.672668,538.588135 448.672668,542.105408 448.672668,545.721558 
	C441.337646,541.596863 433.337921,544.118042 425.619019,543.687988 
	C424.812225,543.643066 423.137665,545.763550 423.125458,546.893005 
	C422.959991,562.210999 422.929230,577.532654 423.136963,592.849670 
	C423.161530,594.660645 424.794617,596.449768 425.876831,598.643921 
	C421.307037,598.643921 416.837952,598.643921 413.251007,598.643921 
	C413.831787,594.991272 414.814758,591.506226 414.865967,588.007446 
	C415.058472,574.854797 414.811951,561.695496 415.033295,548.543762 
	C415.098480,544.668640 414.083160,543.027649 410.035858,543.456238 
	C407.236725,543.752625 404.380066,543.506042 401.061707,543.500244 
z"/>
<path fill="#E8E8E8" opacity="1.000000" stroke="none" 
	d="
M341.881531,599.676025 
	C326.360535,599.361755 311.233093,599.227417 296.105988,599.065308 
	C294.388153,599.046875 292.671936,598.873230 291.748138,598.818542 
	C292.521332,595.071228 293.694519,591.902588 293.742706,588.717041 
	C293.954010,574.745667 293.953491,560.767700 293.752319,546.796204 
	C293.709503,543.820557 292.507050,540.861694 291.740875,537.460266 
	C295.394287,537.460266 299.971008,537.460266 303.900024,537.460266 
	C303.211365,540.586548 302.034119,543.551514 301.990936,546.532837 
	C301.788788,560.504517 301.986725,574.481567 301.831970,588.454407 
	C301.795837,591.717896 302.817322,592.838257 306.084595,592.797729 
	C316.730011,592.665466 327.381042,592.902039 338.023560,592.685303 
	C340.413147,592.636597 342.777008,591.323547 345.455048,590.499451 
	C345.455048,594.070923 345.455048,597.910278 345.455048,602.477783 
	C344.103088,601.359558 343.189148,600.603577 341.881531,599.676025 
z"/>
<path fill="#E8E8E8" opacity="1.000000" stroke="none" 
	d="
M371.395569,553.014282 
	C371.391571,565.822510 371.280457,578.134399 371.472321,590.441528 
	C371.511688,592.965332 372.684998,595.471313 373.455811,598.449951 
	C369.730255,598.449951 365.195435,598.449951 361.262573,598.449951 
	C361.908722,595.349243 363.037872,592.341736 363.079773,589.319153 
	C363.278107,575.015381 363.274109,560.706360 363.106873,546.401978 
	C363.073334,543.533081 362.015778,540.676086 361.346985,537.406006 
	C365.141113,537.406006 369.706848,537.406006 375.470795,537.406006 
	C369.220520,541.890015 372.100128,547.554138 371.395569,553.014282 
z"/>
<path fill="#E8E8E8" opacity="1.000000" stroke="none" 
	d="
M267.203583,584.833252 
	C267.733368,589.672852 265.463257,594.655579 271.286652,598.606445 
	C265.479736,598.606445 260.922241,598.606445 257.209991,598.606445 
	C257.888489,595.237610 258.974396,592.245605 259.014069,589.239807 
	C259.200623,575.113159 259.205200,560.981384 259.016968,546.854797 
	C258.977142,543.864868 257.857605,540.889343 257.141937,537.458252 
	C260.809174,537.458252 265.395142,537.458252 269.134949,537.458252 
	C268.488403,540.830811 267.365906,544.134460 267.305450,547.457336 
	C267.081665,559.753906 267.208435,572.056763 267.203583,584.833252 
z"/>
<path fill="#F8F8F9" opacity="1.000000" stroke="none" 
	d="
M137.912506,231.349747 
	C130.452087,228.208160 126.874611,222.411026 128.221100,216.114929 
	C129.706406,209.169724 134.353607,204.614639 140.031174,204.538940 
	C146.601700,204.451355 153.561707,209.969528 154.765854,216.521240 
	C156.262268,224.663177 146.815536,234.188095 137.912506,231.349747 
z"/>
<path fill="#F7F7F8" opacity="1.000000" stroke="none" 
	d="
M512.665161,243.693909 
	C515.328064,250.651779 513.272095,256.324310 507.215820,259.615814 
	C502.245148,262.317291 496.025635,260.725372 492.656036,255.889008 
	C489.208801,250.941193 490.172485,243.936600 494.900726,239.573563 
	C499.903015,234.957687 506.174530,236.310913 512.665161,243.693909 
z"/>
<path fill="#F6F6F7" opacity="1.000000" stroke="none" 
	d="
M817.919189,306.786682 
	C813.401917,306.323486 810.252502,304.552673 809.010437,300.299591 
	C807.589050,295.432159 810.239502,289.789978 814.609985,288.343353 
	C818.586060,287.027252 824.904480,290.310364 826.477295,294.509644 
	C828.216736,299.153992 825.734131,304.184326 820.708679,306.129944 
	C819.939026,306.427948 819.107483,306.566010 817.919189,306.786682 
z"/>
<path fill="#F8F8F9" opacity="1.000000" stroke="none" 
	d="
M686.809692,52.178890 
	C685.253296,64.285591 679.474915,68.372787 667.242493,66.223213 
	C668.300171,59.031475 669.358826,51.833626 670.404541,44.723572 
	C680.715637,42.795166 684.967224,44.668499 686.809692,52.178890 
z"/>
<path fill="#F5F5F6" opacity="1.000000" stroke="none" 
	d="
M682.499023,32.893135 
	C678.905212,33.376312 675.689209,33.733746 672.398193,34.099525 
	C672.282654,32.929577 672.136047,32.443649 672.204773,31.990364 
	C673.119263,25.960045 674.063965,19.934299 675.026917,13.741755 
	C675.997559,13.619410 676.796143,13.371154 677.562805,13.446538 
	C681.924866,13.875463 687.296082,11.978028 689.390686,18.014521 
	C691.103699,22.951729 688.281006,29.081606 682.499023,32.893135 
z"/>
<path fill="#FAFAFB" opacity="1.000000" stroke="none" 
	d="
M585.951660,64.291672 
	C581.979858,65.335304 578.338745,66.176376 573.588928,67.273552 
	C576.314758,48.723743 578.862061,31.389078 581.394653,14.154025 
	C593.656616,11.510232 600.251892,16.164049 599.658997,28.188229 
	C599.247803,36.527302 597.506165,44.994164 594.958496,52.955818 
	C593.612732,57.161701 589.271240,60.409023 585.951660,64.291672 
z"/>
<path fill="#FCFCFC" opacity="1.000000" stroke="none" 
	d="
M350.282043,66.067657 
	C348.655090,62.690765 346.501007,59.607327 346.228546,56.365734 
	C345.253571,44.765511 347.194763,33.484314 352.029388,22.845411 
	C355.478149,15.256169 360.394135,11.840360 365.371307,13.054599 
	C369.478302,14.056552 371.945648,18.990261 371.959015,26.897934 
	C371.978027,38.160271 370.221161,49.115932 364.917267,59.190739 
	C361.099152,66.443352 357.059753,68.253815 350.282043,66.067657 
z"/>
<path fill="#F8F8F9" opacity="1.000000" stroke="none" 
	d="
M505.200806,17.121609 
	C507.547150,29.035280 501.317780,35.878586 489.396423,34.609470 
	C490.379669,27.781639 491.361420,20.964191 492.422699,13.594486 
	C496.930084,13.771924 501.676086,11.915202 505.200806,17.121609 
z"/>
<path fill="#F8F8F9" opacity="1.000000" stroke="none" 
	d="
M322.438660,15.516605 
	C327.163086,22.225494 325.307159,28.590321 321.934326,34.520168 
	C318.272797,40.957451 311.954071,41.429539 304.976044,40.658497 
	C306.322418,31.638641 307.639343,22.816383 309.135742,12.791573 
	C313.651550,13.643746 317.896912,14.444885 322.438660,15.516605 
z"/>
<path fill="#111414" opacity="1.000000" stroke="none" 
	d="
M187.379181,581.982544 
	C187.378006,569.421631 187.380280,569.276306 199.377884,569.464294 
	C206.660797,569.578369 214.015152,569.700500 221.189636,570.791077 
	C227.482071,571.747620 230.583389,576.606567 230.198242,582.623779 
	C229.859543,587.915344 226.204330,591.977539 220.003143,592.332581 
	C210.217926,592.892700 200.387680,592.795715 190.580765,592.662292 
	C189.505142,592.647705 187.834259,590.715149 187.535904,589.419678 
	C187.026184,587.206482 187.385132,584.793213 187.379181,581.982544 
z"/>
<path fill="#121516" opacity="1.000000" stroke="none" 
	d="
M187.381027,555.815308 
	C187.358917,543.314758 187.358917,543.304504 199.298615,543.308594 
	C204.782532,543.310486 210.278824,543.154541 215.744888,543.481689 
	C218.312378,543.635376 220.990128,544.410278 223.319534,545.526367 
	C227.233566,547.401672 228.490936,551.018066 228.004242,555.142090 
	C227.549271,558.997314 225.357635,561.952881 221.439636,562.218384 
	C211.035843,562.923157 200.598007,563.529236 190.180038,563.439392 
	C185.449463,563.398621 188.037201,558.826660 187.381027,555.815308 
z"/>
<path fill="#0A0D0D" opacity="1.000000" stroke="none" 
	d="
M607.127869,558.538757 
	C617.031738,538.642212 647.116516,536.569336 659.453674,554.582397 
	C666.762329,565.253296 663.523071,580.823853 652.385315,588.558777 
	C640.467285,596.835571 622.009338,595.277039 611.936890,584.865417 
	C604.714233,577.399536 604.039124,568.435913 607.127869,558.538757 
z"/>
<path fill="#101312" opacity="1.000000" stroke="none" 
	d="
M115.495735,570.056885 
	C119.516205,561.286316 123.343285,552.895264 127.170357,544.504211 
	C127.673035,544.455872 128.175720,544.407532 128.678391,544.359192 
	C133.122116,553.992493 137.565857,563.625793 142.299667,573.887939 
	C132.625504,573.887939 123.767693,573.887939 114.503441,573.887939 
	C114.807518,572.574219 115.054924,571.505310 115.495735,570.056885 
z"/>
<path fill="#0D1011" opacity="1.000000" stroke="none" 
	d="
M927.756348,561.802124 
	C927.754822,556.660217 927.857422,551.998535 927.727905,547.343323 
	C927.654663,544.712463 928.349976,543.280579 931.301941,543.329346 
	C939.618591,543.466858 947.947144,543.229187 956.252747,543.576294 
	C962.828186,543.851074 966.373413,547.472534 966.745056,553.337280 
	C967.138855,559.551819 963.962280,564.056030 957.341553,564.580261 
	C948.408386,565.287537 939.393066,565.046631 930.415344,564.963440 
	C929.523193,564.955200 928.647034,563.219177 927.756348,561.802124 
z"/>
</svg>